<svg xmlns="http://www.w3.org/2000/svg" width="2048" height="2048"><path d="M327.5.66c-75.053 3.685-141.846 28.727-200 74.985-14.124 11.234-40.621 37.731-51.855 51.855C33.407 180.601 9.451 239.458 1.77 309c-1.868 16.918-1.868 1413.082 0 1430 7.681 69.542 31.637 128.399 73.875 181.5 11.234 14.124 37.731 40.621 51.855 51.855 53.101 42.238 111.958 66.194 181.5 73.875 16.918 1.868 1413.082 1.868 1430 0 69.542-7.681 128.399-31.637 181.5-73.875 14.124-11.234 40.621-37.731 51.855-51.855 37.172-46.732 61.043-100.038 70.531-157.5 2.546-15.423 4.114-30.872 4.114-40.547 0-4.034.45-7.613 1-7.953.665-.411 1-232.03 1-691.618 0-460.412-.334-690.794-1-690.382-.633.391-1-2.121-1-6.835 0-9.785-1.558-25.183-4.114-40.665-9.488-57.462-33.359-110.768-70.531-157.5-11.234-14.124-37.731-40.621-51.855-51.855-20.187-16.058-47.557-33.22-68.146-42.731-36.042-16.65-67.958-25.558-111.354-31.08C1733.661.9 1572.475.595 1032.5.495 648.05.424 330.8.498 327.5.66m27.175 218.39c-53.246 6.235-98.407 38.1-121.232 85.538-7.953 16.53-12.407 32.558-14.48 52.117-.706 6.657-.933 138.575-.708 411.795.31 378.134.434 402.505 2.079 410.5 5.98 29.057 19.507 55.296 39.044 75.736 23.007 24.07 47.667 37.829 81.622 45.541 9.173 2.084 11.982 2.169 81.68 2.489l72.18.331 3.32-2.966 3.32-2.967.513-342.332.514-342.332 2.173-8.047c7.213-26.71 18.053-45.855 36.166-63.875 15.354-15.275 31.681-25.473 51.261-32.019 20.952-7.004-7.584-6.481 361.572-6.633 183.59-.076 336.238-.47 339.217-.874 4.144-.563 5.976-1.388 7.804-3.512l2.388-2.777-.371-72.131c-.359-69.751-.443-72.449-2.547-81.748-3.334-14.731-6.712-24.178-13.726-38.384-21.433-43.409-59.744-71.986-110.202-82.202-8.297-1.68-30.145-1.782-411.762-1.911-221.65-.075-406.071.223-409.825.663M.497 1024c0 380.325.114 535.912.253 345.75.139-190.163.139-501.338 0-691.5C.611 488.087.497 643.675.497 1024m1549.2-278.595c-1.484 1.375-2.805 2.633-2.936 2.797-.132.164-.473 154.198-.758 342.298l-.518 342-2.704 10c-7.032 26.01-17.754 44.678-36.2 63.028-15.252 15.172-31.587 25.223-51.921 31.948-21.276 7.036 7.293 6.524-364.386 6.524-366.539 0-338.407-.46-343.186 5.615-2.072 2.634-2.088 3.193-2.088 71.92 0 64.796.13 70.024 2.008 81.014 6.56 38.367 27.734 73.126 58.72 96.392 23.1 17.344 49.516 27.45 78.621 30.077 8.641.78 127.546 1.007 411.651.787 383.521-.298 399.88-.384 409-2.155 69.069-13.416 118.027-65.963 125.957-135.191 1.451-12.667 1.438-798.907-.013-812.248-3.7-34.005-17.741-64.865-40.527-89.071-21.861-23.222-46.475-37.18-79.917-45.318-8.771-2.134-10.896-2.199-83.553-2.553l-74.554-.363-2.696 2.499m-675.393.732c-65.716 9.438-118.205 60.438-129.36 125.691-1.882 11.01-1.944 17.919-1.944 217.637 0 203.566.026 206.298 1.966 208.765 1.081 1.375 3.22 3.018 4.751 3.653 2.081.862 55.88 1.086 212.784.885l209.999-.268 9.84-2.246c32.62-7.445 55.287-19.748 77.726-42.188 22.254-22.253 34.79-45.197 42.229-77.284l2.151-9.282.295-210.309.295-210.308-2.941-2.942-2.941-2.941-209.327.123c-116.219.069-212.083.52-215.523 1.014" fill="undefined" fill-rule="evenodd"/></svg>